<?xml version="1.0" encoding="UTF-8"?>
<svg version="1.1" viewBox="0 0 45 33" xmlns="http://www.w3.org/2000/svg">
<title>Logo/Lettermark/Black</title>
<desc>Created with Sketch.</desc>
<g fill="none" fill-rule="evenodd">
<rect width="45" height="33"/>
<path d="m43.69 7.1119h-10.077l-1.2291 5.6326h9.2734l-1.3562 6.3511h-9.2714l-2.8355 13.419h-7.451l6.7285-31.752h17.528l-1.3098 6.3491zm-39.719 9.2714c-1.0131 4.8698-3.2977 14.438 3.6872 14.438 4.7406 0 6.8556-5.1624 7.8304-9.0574h2.7528c-1.0151 5.4187-5.0797 11.512-11.431 11.512-9.1886 0-6.9-10.793-5.4611-17.524 1.3966-6.5206 4.1917-15.752 12.615-15.752 5.7174 0 7.6205 4.5307 6.561 9.9071h-2.7507c0.50857-3.7659-0.12513-7.453-4.3996-7.453-6.6922 0-8.5125 9.6548-9.4046 13.929z" fill="#333"/>
</g>
</svg>
